<?xml version="1.0" standalone="no"?><!DOCTYPE svg PUBLIC "-//W3C//DTD SVG 1.1//EN" "http://www.w3.org/Graphics/SVG/1.1/DTD/svg11.dtd"><svg t="1614225301447" class="icon" viewBox="0 0 1024 1024" version="1.1" xmlns="http://www.w3.org/2000/svg" p-id="552" width="128" height="128" xmlns:xlink="http://www.w3.org/1999/xlink"><defs><style type="text/css"></style></defs><path d="M206.164718 818.011654c-2.792166-48.02526-4.653611-89.535466-5.817013-124.577153a1749.478332 1749.478332 0 0 1 0.83765-119.272037c1.116867-38.019998 3.490208-79.437131 7.073488-124.251401 3.58328-44.721197 7.631921-78.13412 12.052851-100.145698l19.079803-112.524302L132.265383 317.515845l25.781002-262.649777a2664.657373 2664.657373 0 0 1 162.411007-38.252679C368.343044 7.120024 429.398414 1.582228 503.623501 0.093072c72.596324-0.977258 136.583468 5.49126 191.961433 19.545164 55.377965 13.960832 102.379431 38.997256 140.86479 75.016202 38.485359 36.018945 58.821637 74.923129 61.05537 116.666015 2.187197 41.789422-6.654663 79.437131-26.618652 112.943127-23.268053 39.043792-47.327219 64.778258-72.270571 77.249934l-110.52325 64.592114c54.307635 13.030109 98.889223 27.642446 133.791302 43.883547 34.902079 16.287637 62.032628 40.486411 81.438184 72.782468 19.35902 32.249521 28.526632 70.921024 27.456302 115.921438-1.721836 40.02105-12.657821 79.437131-32.85449 118.201707-20.243206 38.764575-55.703718 73.666654-106.381536 104.706236-50.677818 30.993046-107.731083 54.72646-171.159794 71.246777s-128.905011 26.292899-196.521972 29.317746c-70.316055 3.443672-131.557569 1.442619-183.63147-6.049694l-98.842687-12.750893L93.175055 781.992709l112.989663 36.018945zM360.990339 208.48175c-2.792166 39.276473-4.653611 71.712138-5.49126 97.400068-0.83765 25.68793-0.698042 51.655077 0.418825 77.761832L358.430853 460.70744c20.848175-0.930722 43.790475-2.559486 68.873436-4.746683 25.082961-2.140661 60.264256-9.772582 105.636958-22.895764 45.326166-13.030109 86.882908-28.852385 124.623689-47.234146 37.740781-18.381761 66.500094-38.159606 86.184867-59.240462 19.731309-21.080856 29.736571-43.092433 30.015788-66.127805 0.279217-23.035372-10.563696-44.674661-32.575274-65.057475-15.729203-13.542007-38.159606-24.477991-67.151599-32.714882-28.991993-8.236891-64.080217-10.889449-105.171598-8.00421-46.768786 3.909033-85.626433 11.401346-116.619479 22.570011l-91.257302 31.225726z m-6.049693 305.788747c5.212044 27.549374 10.703304 60.031575 16.473781 97.586212 5.770477 37.461565 10.703304 65.4763 14.705409 83.997669 4.048641 18.52137 11.540954 39.881442 22.523475 64.080217l25.129496 59.100853c41.556742-0.465361 78.832162-2.373341 111.733189-5.677404a382.619855 382.619855 0 0 0 101.774461-25.641394 261.253694 261.253694 0 0 0 89.675075-57.704771c24.803744-24.664136 37.089276-52.21351 36.763523-82.55505-0.232681-30.388077-12.238996-55.657182-35.925873-75.853851-23.640341-20.150133-63.754464-35.460512-120.388904-45.931136-56.587904-10.424088-107.126114-14.93809-151.568094-13.49547l-110.895538 2.094125z" fill="#303846" p-id="553"></path></svg>